<?xml version="1.0" standalone="no"?>
<!DOCTYPE svg PUBLIC "-//W3C//DTD SVG 20010904//EN"
 "http://www.w3.org/TR/2001/REC-SVG-20010904/DTD/svg10.dtd">
<svg version="1.0" xmlns="http://www.w3.org/2000/svg"
 width="300.000000pt" height="300.000000pt" viewBox="0 0 300.000000 300.000000"
 preserveAspectRatio="xMidYMid meet">
<metadata>
Created by potrace 1.14, written by Peter Selinger 2001-2017
</metadata>
<g transform="translate(0.000000,300.000000) scale(0.100000,-0.100000)"
fill="#000000" stroke="none">
<path d="M1375 2934 c-134 -39 -411 -96 -555 -115 -146 -20 -398 -17 -498 6
-45 10 -84 16 -87 13 -3 -2 -8 -77 -11 -166 l-7 -162 114 0 c63 0 175 -7 249
-16 91 -11 170 -14 243 -10 l107 6 0 -74 0 -74 -76 -7 c-79 -8 -146 -3 -283
21 -84 14 -267 19 -308 8 -18 -5 -23 -14 -23 -38 0 -74 3 -76 102 -76 49 0
151 -7 226 -16 89 -11 176 -14 250 -11 l112 5 0 -73 0 -73 -76 -7 c-79 -8
-146 -3 -283 21 -90 15 -258 19 -279 6 -10 -7 -10 -19 -1 -60 l12 -52 74 0
c41 0 136 -7 211 -16 93 -11 170 -14 240 -10 l102 7 0 -75 c0 -68 -2 -74 -22
-80 -33 -8 -131 -7 -218 4 -214 26 -289 32 -313 26 l-26 -6 21 -50 c23 -56 3
-49 218 -71 64 -6 166 -10 227 -7 l111 4 4 -70 c2 -39 2 -74 0 -78 -6 -13
-211 -8 -317 7 -55 8 -113 15 -128 15 l-28 0 22 -39 22 -39 138 -27 c76 -14
172 -27 214 -28 l75 -2 0 -73 0 -72 -82 6 c-46 3 -117 12 -158 19 -41 7 -77
11 -79 9 -8 -8 145 -198 235 -292 l93 -97 1 56 c0 55 1 56 47 90 77 56 73 57
73 -14 l0 -65 -56 -38 -55 -38 38 -33 c125 -109 328 -246 456 -309 l54 -27 94
56 c155 91 419 290 419 315 0 5 -20 22 -44 39 -44 31 -44 32 -48 97 -1 36 -2
66 0 66 2 0 27 -18 57 -40 54 -40 55 -41 55 -93 l1 -52 97 100 c84 86 236 274
229 282 -2 1 -39 -4 -82 -12 -44 -7 -114 -15 -155 -17 l-75 -3 -3 72 -3 73 28
-6 c30 -6 190 16 316 43 70 15 79 20 97 51 12 19 18 37 16 40 -3 2 -61 -3
-128 -12 -68 -9 -169 -16 -225 -16 l-103 0 0 78 0 78 123 -4 c99 -3 405 20
412 31 13 20 34 91 30 98 -9 13 -73 11 -200 -6 -167 -23 -307 -30 -344 -17
l-31 11 0 -40 0 -40 -54 38 -54 38 -4 63 c-1 35 -1 65 1 67 8 9 110 -79 114
-98 2 -12 5 9 6 46 l1 69 98 -7 c67 -5 146 -2 248 9 82 9 178 17 214 19 l64 2
14 48 c8 27 11 52 7 55 -14 15 -188 13 -277 -2 -148 -24 -212 -29 -292 -21
l-76 7 0 73 0 73 118 -5 c77 -4 161 0 247 11 72 9 174 16 227 16 l95 0 7 51
c4 28 4 54 1 58 -15 14 -242 13 -330 -2 -144 -25 -209 -30 -289 -22 l-76 7 0
74 0 74 108 -6 c73 -4 151 -1 244 10 75 9 186 16 247 16 106 0 110 -1 113 -22
7 -44 18 240 12 299 l-6 59 -87 -18 c-199 -41 -437 -33 -712 23 -115 23 -356
84 -451 113 -7 2 -67 -11 -133 -30z m-315 -116 c-1 -16 -17 -34 -55 -60 -29
-21 -56 -38 -59 -38 -3 0 -6 22 -6 49 l0 49 48 10 c70 14 72 14 72 -10z m920
11 l50 -11 0 -49 c0 -27 -2 -49 -5 -49 -3 0 -30 18 -59 40 -41 31 -53 46 -49
60 3 11 7 20 9 20 2 0 26 -5 54 -11z m-920 -124 l0 -64 -55 -41 c-30 -22 -57
-40 -60 -40 -3 0 -5 27 -5 60 l0 60 58 45 c31 25 58 45 60 45 1 0 2 -29 2 -65z
m920 18 l50 -37 0 -64 0 -63 -56 38 -56 39 -2 62 c0 34 2 62 7 62 4 0 30 -17
57 -37z m-920 -185 l-1 -63 -54 -37 c-29 -21 -56 -38 -59 -38 -3 0 -6 27 -6
60 l0 59 53 40 c28 23 55 41 60 41 4 0 7 -28 7 -62z m925 20 c44 -33 44 -33
45 -96 0 -71 1 -70 -74 -15 -37 28 -38 32 -40 91 -1 70 0 71 69 20z m-465
-163 c0 -46 -22 -87 -35 -65 -4 7 -8 36 -8 65 0 29 4 58 8 65 13 22 35 -19 35
-65z m-460 -17 l0 -63 -54 -37 c-30 -21 -57 -38 -60 -38 -3 0 -6 26 -6 59 l0
59 53 40 c28 23 55 41 60 41 4 1 7 -27 7 -61z m925 20 c44 -33 44 -33 45 -96
l0 -63 -30 18 c-75 44 -82 54 -84 121 -1 70 0 71 69 20z m-587 -22 c38 -20 76
-62 63 -70 -19 -12 -121 52 -121 76 0 12 28 10 58 -6z m250 2 c-6 -17 -69 -65
-95 -73 -47 -14 -15 42 42 73 27 15 58 15 53 0z m-240 -95 c13 -10 23 -22 23
-28 -4 -25 -119 15 -129 45 -7 19 74 7 106 -17z m282 18 c0 -21 -110 -69 -130
-56 -15 9 7 35 45 51 35 15 85 18 85 5z m-170 -27 c6 -14 10 -45 10 -70 0 -42
-1 -44 -30 -44 -29 0 -30 1 -30 51 0 79 30 117 50 63z m-460 -57 l0 -64 -53
-36 c-30 -21 -57 -37 -60 -37 -4 0 -7 26 -7 59 l0 59 53 40 c28 23 55 41 60
41 4 1 7 -28 7 -62z m917 23 l53 -41 0 -59 c0 -33 -3 -60 -7 -60 -5 0 -30 17
-57 38 -48 37 -48 37 -50 100 0 34 1 62 3 62 2 0 28 -18 58 -40z m-569 -27
c58 -27 30 -54 -35 -33 -44 14 -75 39 -67 52 7 11 57 2 102 -19z m277 16 c15
-23 -105 -73 -126 -52 -13 13 9 31 58 49 47 16 60 17 68 3z m-31 -85 c9 -4 16
-18 16 -34 0 -23 -10 -33 -55 -61 -43 -26 -53 -37 -50 -53 21 -93 38 -221 42
-328 l6 -128 -32 11 c-19 7 -68 10 -117 7 -74 -4 -84 -2 -90 14 -7 24 13 226
35 352 l18 98 -54 34 c-44 29 -53 39 -53 64 l0 30 159 0 c88 0 166 -3 175 -6z
m-594 -89 l0 -64 -52 -36 c-29 -19 -56 -35 -60 -35 -5 0 -8 26 -8 58 l0 58 57
42 c32 23 59 42 60 42 2 0 3 -29 3 -65z m915 24 l55 -41 0 -59 c0 -33 -3 -59
-7 -59 -5 0 -29 16 -55 35 -46 34 -46 34 -50 99 -1 37 -2 66 0 66 2 0 27 -19
57 -41z m-915 -183 l0 -64 -47 -34 c-78 -55 -73 -56 -73 14 l1 63 57 42 c31
23 58 43 60 43 1 0 2 -29 2 -64z m-29 -246 c-16 -14 -43 -33 -60 -43 l-31 -18
0 60 0 61 58 45 57 45 3 -62 c3 -59 2 -64 -27 -88z m949 103 l50 -37 0 -64 0
-63 -56 38 -56 39 -2 62 c0 34 2 62 7 62 4 0 30 -17 57 -37z m-920 -185 l0
-63 -53 -35 c-28 -19 -55 -36 -59 -38 -5 -2 -8 24 -8 57 l0 60 53 40 c28 23
55 41 60 41 4 0 7 -28 7 -62z m925 20 c44 -33 44 -33 45 -95 0 -35 -1 -63 -3
-63 -1 0 -26 17 -56 38 l-53 38 -2 62 c-1 70 0 71 69 20z m-397 -59 c17 -6 34
-19 37 -30 4 -11 16 -19 28 -19 49 0 67 -11 67 -42 l0 -29 -212 2 c-117 1
-218 3 -225 6 -7 3 -13 18 -13 34 l0 29 105 0 c103 0 105 1 95 20 -6 11 -8 25
-5 30 8 13 84 13 123 -1z m-528 -121 l0 -63 -54 -37 c-30 -21 -57 -38 -60 -38
-3 0 -6 26 -6 59 l0 59 53 40 c28 23 55 41 60 41 4 1 7 -27 7 -61z m925 20
c44 -33 44 -33 45 -96 l0 -63 -30 18 c-75 44 -82 54 -84 121 -1 70 0 71 69 20z
m-315 -37 c0 -5 -16 -19 -35 -31 -26 -16 -46 -21 -73 -18 -22 3 -46 -1 -59 -9
-17 -12 -26 -12 -44 -2 -22 11 -22 12 -4 25 27 20 9 17 -26 -3 -29 -17 -31
-17 -67 3 -68 40 -56 44 132 44 100 0 176 -4 176 -9z m-610 -144 l0 -64 -53
-36 c-30 -21 -57 -37 -60 -37 -4 0 -7 26 -7 59 l0 59 53 40 c28 23 55 41 60
41 4 1 7 -28 7 -62z m917 23 l53 -41 0 -59 c0 -33 -3 -60 -7 -59 -5 0 -30 17
-57 37 -48 37 -48 37 -50 100 0 34 1 62 3 62 2 0 28 -18 58 -40z m-522 18 c18
-8 25 -18 22 -30 -4 -14 1 -18 18 -18 18 0 22 4 18 18 -7 27 43 47 81 32 21
-8 27 -15 23 -30 -4 -17 1 -19 52 -22 55 -3 56 -3 59 -35 l3 -33 -220 0 c-120
0 -226 3 -235 6 -10 4 -16 18 -16 35 0 28 1 29 55 29 47 0 55 3 53 17 -2 10 7
22 22 30 31 16 33 16 65 1z m-67 -166 c2 -13 -4 -32 -14 -43 -16 -18 -16 -19
5 -19 35 0 19 -25 -17 -28 -38 -4 -39 0 -11 39 22 32 19 65 -6 55 -8 -3 -15
-2 -15 3 0 31 54 25 58 -7z m100 -4 c9 -19 9 -34 2 -52 -21 -56 -70 -40 -70
23 0 63 43 81 68 29z m88 6 c13 -19 15 -32 8 -51 -22 -62 -74 -50 -74 16 0 62
37 81 66 35z m88 4 c8 -13 5 -22 -14 -43 l-23 -25 21 0 c13 0 22 -6 22 -15 0
-10 -11 -15 -35 -15 -40 0 -44 9 -15 35 25 23 23 61 -3 59 -14 -2 -15 1 -6 12
15 18 38 14 53 -8z m-604 -200 l0 -62 -40 39 -39 38 32 23 c18 13 35 23 40 24
4 0 7 -28 7 -62z m896 41 c19 -11 34 -24 34 -27 0 -6 -65 -62 -72 -62 -2 0 -3
25 -3 55 0 30 2 55 4 55 2 0 19 -9 37 -21z"/>
<path d="M1450 1090 c0 -32 4 -49 10 -45 6 3 10 24 10 45 0 21 -4 42 -10 45
-6 4 -10 -13 -10 -45z"/>
<path d="M1540 1090 c0 -32 4 -49 10 -45 6 3 10 24 10 45 0 21 -4 42 -10 45
-6 4 -10 -13 -10 -45z"/>
<path d="M2742 2400 c0 -14 2 -19 5 -12 2 6 2 18 0 25 -3 6 -5 1 -5 -13z"/>
<path d="M54 886 c-16 -12 -20 -31 -25 -123 -3 -59 -12 -137 -18 -173 -12 -63
-11 -68 26 -183 l38 -118 41 50 41 50 38 -55 c21 -30 41 -51 45 -47 4 4 18 39
30 76 l22 68 76 -3 77 -3 2 -35 c2 -19 5 -67 9 -106 l5 -71 142 -47 c229 -75
443 -115 689 -127 295 -14 574 1 773 41 165 33 192 42 372 107 l123 45 -5 56
c-3 32 -8 73 -10 93 -5 34 -3 37 26 43 54 11 137 7 143 -6 4 -7 4 -3 2 9 -3
16 2 24 16 29 21 6 37 -9 38 -36 0 -10 12 -3 31 19 l31 33 27 -26 c15 -14 30
-26 34 -26 3 0 9 16 13 36 6 33 27 54 41 40 7 -7 -26 -137 -39 -151 -6 -6 -20
2 -39 25 l-29 35 -45 -50 c-42 -47 -56 -75 -37 -75 5 0 26 25 47 55 l38 55 38
-51 c44 -60 35 -71 90 98 32 100 33 104 19 160 -7 32 -16 106 -19 164 -7 128
-16 143 -77 136 -36 -4 -56 -17 -133 -86 -50 -44 -96 -81 -103 -81 -6 0 -9 -3
-5 -6 3 -3 55 4 116 16 156 31 152 33 178 -74 35 -148 27 -155 -212 -189 -99
-14 -181 -25 -182 -23 -2 2 -7 36 -13 77 -5 41 -12 95 -16 122 l-7 47 33 0
c18 0 31 3 28 6 -4 3 -68 -3 -143 -12 l-137 -18 6 -27 c3 -14 8 -48 12 -76 l6
-49 -53 -18 c-106 -34 -412 -75 -684 -92 -221 -13 -704 33 -859 83 l-49 15 6
52 c3 28 9 65 12 81 l7 31 -175 23 c-195 26 -198 27 -298 119 -87 81 -133 98
-175 68z m231 -158 c99 -18 182 -33 184 -34 3 -2 -29 -236 -33 -241 -5 -5
-354 49 -372 58 -41 21 -46 52 -24 146 11 47 23 89 26 94 8 14 25 12 219 -23z
m2199 -240 c48 -221 50 -231 31 -244 -55 -40 -368 -129 -565 -161 -178 -28
-641 -25 -840 5 -181 28 -379 73 -521 118 -96 31 -109 37 -109 57 1 37 27 257
31 261 2 2 60 -9 129 -25 524 -121 1058 -143 1456 -59 100 21 285 79 332 104
15 9 30 15 33 16 4 0 14 -33 23 -72z m-2401 -28 c5 -19 11 -37 13 -39 2 -3 18
8 34 24 l30 29 29 -34 28 -34 7 27 c5 20 13 27 32 27 19 0 24 -4 20 -17 -3
-10 -10 -40 -17 -68 -6 -27 -15 -53 -19 -58 -3 -4 -24 15 -46 42 l-39 49 -37
-36 c-27 -26 -39 -32 -42 -21 -3 8 -14 45 -25 82 l-19 68 21 -3 c14 -2 24 -14
30 -38z"/>
<path d="M98 698 c-10 -26 -31 -148 -27 -152 2 -2 20 -7 40 -11 l35 -7 12 64
c7 35 15 75 19 91 5 26 4 27 -35 27 -23 0 -42 -5 -44 -12z"/>
<path d="M2326 473 c-106 -37 -264 -73 -416 -95 -146 -20 -609 -17 -785 6
-176 22 -339 50 -479 82 -60 13 -112 22 -115 18 -9 -8 -29 -218 -22 -226 20
-23 417 -114 626 -144 172 -24 561 -30 728 -10 215 25 462 83 598 140 l36 15
-25 126 c-14 72 -30 125 -36 124 -6 -1 -55 -17 -110 -36z m-1295 -190 l15 -48
22 43 c19 36 27 42 55 42 19 0 27 -3 20 -8 -7 -5 -13 -35 -14 -73 -2 -61 -3
-65 -23 -62 -20 4 -21 9 -16 59 3 30 5 54 4 54 -2 0 -15 -22 -31 -50 -15 -27
-31 -50 -34 -50 -3 0 -14 26 -25 58 l-19 57 -3 -57 c-2 -42 -7 -58 -17 -58
-11 0 -12 6 -5 26 6 14 10 45 10 70 0 39 2 44 23 44 19 0 26 -9 38 -47z m1003
15 c8 -5 7 -8 -1 -8 -14 0 -17 -37 -7 -64 3 -9 11 -13 17 -9 6 3 7 1 3 -5 -14
-23 -45 -13 -51 16 -4 15 -8 36 -10 47 -5 23 27 64 34 43 2 -7 9 -16 15 -20z
m-134 0 c1 -13 2 -44 4 -70 3 -40 1 -48 -13 -48 -14 0 -18 10 -20 53 -1 28 -4
60 -7 70 -4 12 0 17 15 17 15 0 21 -7 21 -22z m-185 -6 c0 -18 -20 -15 -23 4
-3 10 1 15 10 12 7 -3 13 -10 13 -16z m-124 -6 c-7 -8 -11 -37 -9 -68 3 -61
23 -73 58 -38 l22 22 -4 -24 c-3 -20 -9 -23 -59 -26 l-55 -3 4 67 c3 49 1 69
-9 75 -9 6 -1 9 25 9 32 0 36 -2 27 -14z m363 -28 c3 -13 7 -35 11 -50 4 -23
2 -28 -15 -28 -17 0 -20 7 -20 38 0 21 -5 43 -12 50 -9 9 -7 12 10 12 14 0 23
-7 26 -22z m-699 -28 c9 -30 -20 -70 -50 -70 -49 0 -59 82 -12 99 27 11 53 -2
62 -29z m589 18 c-10 -33 -24 -48 -45 -48 -11 0 -19 -4 -19 -10 0 -5 14 -10
30 -10 34 0 49 -22 30 -45 -15 -18 -61 -20 -77 -4 -7 7 -8 21 -2 41 5 19 4 36
-3 48 -18 28 6 50 54 50 36 0 39 -2 32 -22z m-484 -9 c0 -5 -9 -9 -20 -9 -17
0 -20 -7 -20 -40 0 -31 -4 -40 -18 -40 -14 0 -17 9 -17 51 0 47 2 50 23 46 12
-2 25 0 28 5 6 10 24 1 24 -13z m362 -29 c3 -45 1 -50 -17 -50 -17 0 -20 7
-20 50 0 40 3 50 17 50 12 0 17 -12 20 -50z m-272 21 c14 -28 13 -31 -15 -31
-15 0 -25 -6 -25 -14 0 -22 19 -29 38 -14 15 12 16 11 3 -4 -21 -28 -60 -23
-72 8 -19 52 45 102 71 55z"/>
<path d="M1196 219 c-3 -18 -2 -37 4 -43 13 -13 18 -7 22 33 4 44 -17 52 -26
10z"/>
<path d="M1784 245 c-3 -8 -3 -19 1 -25 11 -18 25 -11 25 15 0 27 -17 34 -26
10z"/>
<path d="M1775 140 c3 -5 15 -10 25 -10 10 0 22 5 25 10 4 6 -7 10 -25 10 -18
0 -29 -4 -25 -10z"/>
<path d="M1407 233 c-12 -11 -8 -23 8 -23 8 0 15 7 15 15 0 16 -12 20 -23 8z"/>
<path d="M2603 713 c9 -2 23 -2 30 0 6 3 -1 5 -18 5 -16 0 -22 -2 -12 -5z"/>
<path d="M2810 703 c0 -5 8 -45 17 -91 l17 -83 36 6 c19 4 37 8 39 11 4 3 -15
111 -25 147 -4 12 -16 17 -45 17 -21 0 -39 -3 -39 -7z"/>
</g>
</svg>
